<svg aria-hidden="true" style="position: absolute; width: 0; height: 0; overflow: hidden;" version="1.1" xmlns="http://www.w3.org/2000/svg" xmlns:xlink="http://www.w3.org/1999/xlink">
<defs>
<symbol id="icon-arrow-left-icon" viewBox="0 0 32 32">
<path stroke-linejoin="round" stroke-linecap="round" stroke-miterlimit="4" stroke-width="2.6667" d="M25.333 16h-18.667"></path>
<path stroke-linejoin="round" stroke-linecap="round" stroke-miterlimit="4" stroke-width="2.6667" d="M16 25.334l-9.333-9.333 9.333-9.333"></path>
</symbol>
<symbol id="icon-arrow-right-icon" viewBox="0 0 32 32">
<path stroke-linejoin="round" stroke-linecap="round" stroke-miterlimit="4" stroke-width="2.6667" d="M6.667 16h18.667"></path>
<path stroke-linejoin="round" stroke-linecap="round" stroke-miterlimit="4" stroke-width="2.6667" d="M16 25.334l9.333-9.333-9.333-9.333"></path>
</symbol>
<symbol id="icon-heart-icon" viewBox="0 0 32 32">
<path d="M16 30.144l-2.24-2.218c-8.32-7.287-13.76-12.198-13.76-18.218 0-4.911 3.84-8.713 8.8-8.713 2.72 0 5.44 1.267 7.2 3.327 1.76-2.059 4.48-3.327 7.2-3.327 4.96 0 8.8 3.802 8.8 8.713 0 6.020-5.44 10.931-13.76 18.218l-2.24 2.218z"></path>
</symbol>
<symbol id="icon-search-icon" viewBox="0 0 32 32">
<path stroke-linejoin="round" stroke-linecap="round" stroke-miterlimit="4" stroke-width="2.6667" d="M14.667 25.333c5.891 0 10.667-4.776 10.667-10.667s-4.776-10.667-10.667-10.667c-5.891 0-10.667 4.776-10.667 10.667s4.776 10.667 10.667 10.667z"></path>
<path stroke-linejoin="round" stroke-linecap="round" stroke-miterlimit="4" stroke-width="2.6667" d="M28 28.001l-5.8-5.8"></path>
</symbol>
<symbol id="icon-three-points-icon" viewBox="0 0 32 32">
<path d="M2.513 15.35c0-0.7 0.237-1.288 0.712-1.762 0.475-0.488 1.119-0.731 1.931-0.731 0.825 0 1.469 0.244 1.931 0.731 0.475 0.475 0.713 1.062 0.713 1.762s-0.237 1.288-0.713 1.762c-0.463 0.475-1.106 0.712-1.931 0.712-0.813 0-1.456-0.238-1.931-0.712s-0.712-1.063-0.712-1.762zM13.2 15.35c0-0.7 0.238-1.288 0.713-1.762 0.475-0.488 1.119-0.731 1.931-0.731 0.825 0 1.469 0.244 1.931 0.731 0.475 0.475 0.712 1.062 0.712 1.762s-0.238 1.288-0.712 1.762c-0.462 0.475-1.106 0.712-1.931 0.712-0.812 0-1.456-0.238-1.931-0.712s-0.713-1.063-0.713-1.762zM23.887 15.35c0-0.7 0.238-1.288 0.712-1.762 0.475-0.488 1.119-0.731 1.931-0.731 0.825 0 1.469 0.244 1.931 0.731 0.475 0.475 0.712 1.062 0.712 1.762s-0.238 1.288-0.712 1.762c-0.462 0.475-1.106 0.712-1.931 0.712-0.813 0-1.456-0.238-1.931-0.712s-0.712-1.063-0.712-1.762z"></path>
</symbol>
</defs>
</svg>
